<svg width="19" height="11" viewBox="0 0 19 11" fill="none" xmlns="http://www.w3.org/2000/svg">
<path fill-rule="evenodd" clip-rule="evenodd" d="M11.8722 1.9459H16.3917V0.651054H11.8722V1.9459ZM12.9429 4.77122C12.6549 5.06425 12.4733 5.46121 12.399 5.96213H15.9141C15.877 5.42756 15.6944 5.02366 15.3712 4.74548C15.0441 4.46929 14.6417 4.33169 14.1601 4.33169C13.6383 4.33169 13.2309 4.4782 12.9429 4.77122ZM15.9933 3.03289C16.5382 3.27246 16.9868 3.6526 17.34 4.17133C17.6621 4.62868 17.8688 5.1593 17.9631 5.76217C18.0183 6.11459 18.0404 6.62541 18.0314 7.28966H12.3488C12.3829 8.06083 12.6518 8.60233 13.1656 8.91218C13.4767 9.10522 13.851 9.20224 14.2905 9.20224C14.7531 9.20224 15.1314 9.08443 15.4214 8.84981C15.5809 8.72211 15.7214 8.5459 15.8418 8.32019H17.924C17.8688 8.77557 17.6159 9.23985 17.1684 9.71107C16.47 10.4585 15.4916 10.8327 14.2343 10.8327C13.1957 10.8327 12.2796 10.5179 11.4878 9.88629C10.6921 9.25569 10.2967 8.22813 10.2967 6.80657C10.2967 5.47311 10.655 4.45049 11.3704 3.73872C12.0879 3.02893 13.0161 2.67156 14.159 2.67156C14.8384 2.67156 15.4495 2.79234 15.9933 3.03289ZM3.06888 5.98986V8.76467H5.62969C6.08726 8.76467 6.44449 8.7033 6.69837 8.58153C7.16096 8.35385 7.39175 7.92223 7.39175 7.28273C7.39175 6.74023 7.16899 6.36901 6.72044 6.16607C6.46958 6.05321 6.11737 5.99382 5.66581 5.98986H3.06888ZM3.06888 1.97264V4.26832H5.6337C6.09027 4.26832 6.46256 4.1822 6.74954 4.00994C7.03452 3.83769 7.17802 3.53279 7.17802 3.09721C7.17802 2.61115 6.98937 2.2914 6.61207 2.13499C6.28494 2.02708 5.86952 1.97264 5.36478 1.97264H3.06888ZM8.79661 1.27475C9.11872 1.71726 9.28028 2.24589 9.28028 2.86263C9.28028 3.49718 9.11872 4.00899 8.7926 4.39506C8.60997 4.61087 8.34205 4.80886 7.98783 4.98705C8.52568 5.18108 8.93107 5.48697 9.20702 5.90572C9.47996 6.32348 9.61744 6.83231 9.61744 7.43024C9.61744 8.04697 9.4609 8.60036 9.14682 9.08939C8.94813 9.4131 8.69928 9.68633 8.40025 9.90807C8.06409 10.1625 7.66773 10.3357 7.20915 10.4308C6.75057 10.5248 6.25487 10.5703 5.71902 10.5703H0.966675V0.166016H6.06321C7.34963 0.184825 8.25976 0.554074 8.79661 1.27475Z" fill="#2D2D2D"/>
</svg>
