<svg width="19" height="19" viewBox="0 0 19 19" fill="none" xmlns="http://www.w3.org/2000/svg">
<path fill-rule="evenodd" clip-rule="evenodd" d="M18.0333 9.48781C18.0333 10.0649 17.9746 10.6412 17.8592 11.2029C17.7467 11.7514 17.58 12.2898 17.3617 12.8044C17.1483 13.31 16.8837 13.7972 16.5745 14.2516C16.27 14.7031 15.9191 15.1267 15.5337 15.5128C15.1474 15.8972 14.7224 16.2471 14.2711 16.553C13.8152 16.86 13.3273 17.1242 12.8215 17.3386C12.306 17.5558 11.7664 17.7222 11.2184 17.8345C10.6559 17.9502 10.0776 18.0093 9.49962 18.0093C8.92126 18.0093 8.3429 17.9502 7.78121 17.8345C7.23244 17.7222 6.69283 17.5558 6.17779 17.3386C5.67195 17.1242 5.18357 16.86 4.72772 16.553C4.27645 16.2472 3.85143 15.8972 3.46599 15.5128C3.08015 15.1267 2.72928 14.7031 2.42427 14.2516C2.11675 13.7972 1.85172 13.31 1.63755 12.8044C1.41918 12.2898 1.25211 11.7513 1.13919 11.2029C1.02503 10.6412 0.966675 10.0649 0.966675 9.48781C0.966675 8.91029 1.02499 8.33276 1.13922 7.77224C1.25215 7.22384 1.41922 6.6846 1.63759 6.17074C1.85175 5.66479 2.11678 5.17715 2.4243 4.72276C2.72931 4.2709 3.08018 3.84813 3.46602 3.46158C3.85146 3.0771 4.27648 2.72803 4.72775 2.42263C5.1836 2.11429 5.67198 1.85011 6.17783 1.63539C6.69286 1.41773 7.23244 1.2509 7.78124 1.13941C8.34294 1.02457 8.9213 0.966309 9.49966 0.966309C10.0776 0.966309 10.6559 1.02457 11.2185 1.13941C11.7664 1.25094 12.306 1.41776 12.8215 1.63539C13.3273 1.85007 13.8153 2.11429 14.2711 2.42263C14.7224 2.72803 15.1475 3.0771 15.5337 3.46158C15.9191 3.84813 16.27 4.2709 16.5746 4.72276C16.8837 5.17715 17.1483 5.66482 17.3617 6.17074C17.58 6.6846 17.7467 7.22384 17.8592 7.77224C17.9746 8.33276 18.0333 8.91029 18.0333 9.48781ZM6.39026 2.90569C4.35805 3.86396 2.84131 5.73385 2.36836 7.98739C2.56048 7.98905 5.5973 8.02734 9.09622 7.09902C7.83492 4.86129 6.48735 3.03513 6.39026 2.90569ZM9.7 8.21959C5.94774 9.34132 2.34711 9.26061 2.21795 9.25564C2.21585 9.33385 2.21211 9.40956 2.21211 9.4878C2.21211 11.3573 2.91839 13.0616 4.07929 14.3502C4.07678 14.3464 6.07108 10.8135 10.0038 9.54357C10.0988 9.51195 10.1955 9.48363 10.2913 9.45619C10.1084 9.04262 9.90875 8.62819 9.7 8.21959ZM14.3124 4.02623C13.0293 2.89652 11.3447 2.21127 9.4996 2.21127C8.90748 2.21127 8.33286 2.28284 7.78242 2.41515C7.89157 2.56164 9.26042 4.37492 10.5067 6.66005C13.2565 5.63067 14.2944 4.05284 14.3124 4.02623ZM10.788 10.662C10.7718 10.6674 10.7556 10.672 10.7397 10.6778C6.43997 12.1746 5.03583 15.1911 5.02064 15.224C6.25781 16.1847 7.80956 16.7643 9.49965 16.7643C10.5088 16.7643 11.4701 16.5592 12.3448 16.1877C12.2368 15.5519 11.8135 13.3233 10.788 10.662ZM13.5719 15.5227C15.2082 14.4201 16.3703 12.6692 16.6945 10.6412C16.5445 10.5929 14.5057 9.94837 12.1535 10.3249C13.1093 12.948 13.4977 15.0842 13.5719 15.5227ZM11.0676 7.74439C11.2368 8.09142 11.4006 8.44461 11.5518 8.79958C11.6056 8.92692 11.6581 9.05176 11.7093 9.17656C14.2128 8.86198 16.6792 9.39125 16.7846 9.41286C16.7679 7.68779 16.15 6.10456 15.1275 4.86506C15.1137 4.88457 13.9449 6.57099 11.0676 7.74439Z" fill="#2D2D2D"/>
</svg>
