<svg width="24" height="25" viewBox="0 0 24 25" fill="none" xmlns="http://www.w3.org/2000/svg">
<path d="M12.0001 0.499023C5.3735 0.499023 0 6.0075 0 12.8028C0 18.239 3.43839 22.851 8.2064 24.4779C8.80613 24.5918 9.02631 24.211 9.02631 23.886C9.02631 23.5926 9.01518 22.6234 9.01001 21.5953C5.67157 22.3396 4.96712 20.1436 4.96712 20.1436C4.42125 18.7214 3.63473 18.3433 3.63473 18.3433C2.54596 17.5797 3.7168 17.5953 3.7168 17.5953C4.92181 17.6821 5.55632 18.8633 5.55632 18.8633C6.6266 20.7442 8.36359 20.2004 9.04836 19.8861C9.15607 19.0908 9.46706 18.5481 9.81024 18.2408C7.14486 17.9297 4.34295 16.8747 4.34295 12.1602C4.34295 10.8169 4.81172 9.71934 5.57937 8.8577C5.45477 8.5478 5.04402 7.29639 5.69562 5.60164C5.69562 5.60164 6.70331 5.27096 8.9965 6.86282C9.95372 6.59021 10.9803 6.4535 12.0001 6.44881C13.0199 6.4535 14.0473 6.59021 15.0063 6.86282C17.2967 5.27096 18.303 5.60164 18.303 5.60164C18.9562 7.29639 18.5452 8.5478 18.4206 8.8577C19.1901 9.71934 19.6557 10.8169 19.6557 12.1602C19.6557 16.8859 16.8484 17.9264 14.1762 18.231C14.6067 18.6128 14.9902 19.3616 14.9902 20.5095C14.9902 22.1558 14.9763 23.4807 14.9763 23.886C14.9763 24.2134 15.1923 24.5971 15.8006 24.4762C20.566 22.8475 24 18.2371 24 12.8028C24 6.0075 18.6273 0.499023 12.0001 0.499023Z" fill="white"/>
<path d="M4.58043 18.0802C4.55405 18.1407 4.46043 18.1589 4.37514 18.1173C4.28827 18.0776 4.23947 17.995 4.26764 17.9343C4.29342 17.872 4.38724 17.8546 4.47392 17.8964C4.56099 17.9361 4.61058 18.0195 4.58043 18.0802Z" fill="white"/>
<path d="M5.06559 18.6305C5.00846 18.6844 4.89679 18.6594 4.82103 18.5742C4.74268 18.4893 4.728 18.3757 4.78592 18.321C4.84483 18.2672 4.95312 18.2924 5.03167 18.3773C5.11002 18.4633 5.12529 18.576 5.06559 18.6305Z" fill="white"/>
<path d="M5.53784 19.3322C5.46445 19.384 5.34445 19.3354 5.27027 19.2271C5.19688 19.1187 5.19688 18.9888 5.27186 18.9368C5.34624 18.8847 5.46445 18.9315 5.53963 19.039C5.61282 19.1492 5.61282 19.2791 5.53784 19.3322Z" fill="white"/>
<path d="M6.18485 20.01C6.1192 20.0836 5.97936 20.0639 5.87701 19.9634C5.77229 19.8651 5.74313 19.7257 5.80898 19.6521C5.87543 19.5783 6.01606 19.5991 6.1192 19.6987C6.22313 19.7968 6.25487 19.9372 6.18485 20.01Z" fill="white"/>
<path d="M7.07741 20.4036C7.04845 20.499 6.91377 20.5424 6.7781 20.5018C6.64263 20.4601 6.55397 20.3483 6.58134 20.2519C6.60951 20.1558 6.74478 20.1107 6.88144 20.154C7.01672 20.1956 7.10558 20.3065 7.07741 20.4036Z" fill="white"/>
<path d="M8.05764 20.4766C8.06101 20.5771 7.94597 20.6604 7.80356 20.6622C7.66035 20.6654 7.54452 20.5841 7.54293 20.4853C7.54293 20.3838 7.65539 20.3013 7.7986 20.2989C7.94101 20.2961 8.05764 20.3768 8.05764 20.4766Z" fill="white"/>
<path d="M8.96985 20.3186C8.98691 20.4167 8.88793 20.5174 8.74651 20.5442C8.60747 20.57 8.47874 20.5095 8.46109 20.4123C8.44383 20.3118 8.54459 20.2111 8.68344 20.1851C8.82506 20.1601 8.9518 20.219 8.96985 20.3186Z" fill="white"/>
</svg>
