<svg width="19" height="19" viewBox="0 0 19 19" fill="none" xmlns="http://www.w3.org/2000/svg">
<path fill-rule="evenodd" clip-rule="evenodd" d="M9.50081 0.966309C7.18327 0.966309 6.89243 0.976442 5.98219 1.01786C5.07374 1.05947 4.45364 1.20329 3.91106 1.41431C3.34981 1.63227 2.87372 1.92383 2.3994 2.39832C1.92473 2.87264 1.63317 3.34873 1.4145 3.90981C1.20294 4.45257 1.05894 5.07284 1.01805 5.98094C0.977342 6.89117 0.966675 7.1822 0.966675 9.49973C0.966675 11.8173 0.976986 12.1072 1.01823 13.0175C1.06001 13.9259 1.20383 14.546 1.41468 15.0886C1.63282 15.6498 1.92437 16.1259 2.39887 16.6002C2.87301 17.0749 3.3491 17.3672 3.90999 17.5851C4.45293 17.7962 5.07321 17.94 5.98148 17.9816C6.89171 18.023 7.18238 18.0332 9.49974 18.0332C11.8175 18.0332 12.1074 18.023 13.0176 17.9816C13.9261 17.94 14.5469 17.7962 15.0898 17.5851C15.6509 17.3672 16.1263 17.0749 16.6004 16.6002C17.0751 16.1259 17.3667 15.6498 17.5853 15.0888C17.7951 14.546 17.9391 13.9257 17.9818 13.0176C18.0227 12.1074 18.0333 11.8173 18.0333 9.49973C18.0333 7.1822 18.0227 6.89135 17.9818 5.98112C17.9391 5.07266 17.7951 4.45257 17.5853 3.90998C17.3667 3.34873 17.0751 2.87264 16.6004 2.39832C16.1258 1.92365 15.6511 1.63209 15.0893 1.41431C14.5453 1.20329 13.9249 1.05947 13.0164 1.01786C12.1062 0.976442 11.8164 0.966309 9.49814 0.966309H9.50081ZM8.73525 2.50408C8.96245 2.50372 9.21597 2.50408 9.50077 2.50408C11.7792 2.50408 12.0492 2.51226 12.949 2.55315C13.781 2.59119 14.2326 2.73021 14.5334 2.84702C14.9316 3.00168 15.2155 3.18657 15.514 3.48524C15.8127 3.78391 15.9976 4.06836 16.1526 4.46659C16.2694 4.76704 16.4086 5.2186 16.4464 6.0506C16.4873 6.95017 16.4962 7.2204 16.4962 9.49775C16.4962 11.7751 16.4873 12.0453 16.4464 12.9449C16.4084 13.7769 16.2694 14.2285 16.1526 14.5289C15.9979 14.9271 15.8127 15.2107 15.514 15.5092C15.2153 15.8079 14.9318 15.9928 14.5334 16.1474C14.2329 16.2648 13.781 16.4034 12.949 16.4415C12.0494 16.4824 11.7792 16.4912 9.50077 16.4912C7.22217 16.4912 6.95212 16.4824 6.05256 16.4415C5.22055 16.4031 4.76899 16.264 4.46801 16.1472C4.06978 15.9926 3.78533 15.8077 3.48666 15.509C3.18799 15.2103 3.0031 14.9266 2.84808 14.5282C2.73128 14.2278 2.59208 13.7762 2.55421 12.9442C2.51332 12.0446 2.50514 11.7744 2.50514 9.49562C2.50514 7.21684 2.51332 6.94804 2.55421 6.04847C2.59226 5.21646 2.73128 4.7649 2.84808 4.4641C3.00275 4.06587 3.18799 3.78142 3.48666 3.48276C3.78533 3.18409 4.06978 2.99919 4.46801 2.84417C4.76881 2.72684 5.22055 2.58817 6.05256 2.54995C6.83977 2.51439 7.14484 2.50372 8.73525 2.50195V2.50408ZM14.0558 3.92099C13.4905 3.92099 13.0318 4.37912 13.0318 4.94464C13.0318 5.50998 13.4905 5.96865 14.0558 5.96865C14.6212 5.96865 15.0799 5.50998 15.0799 4.94464C15.0799 4.3793 14.6212 3.92099 14.0558 3.92099ZM9.50082 5.11744C7.08071 5.11744 5.11855 7.07959 5.11855 9.49971C5.11855 11.9198 7.08071 13.8811 9.50082 13.8811C11.9209 13.8811 13.8824 11.9198 13.8824 9.49971C13.8824 7.07959 11.9209 5.11744 9.50082 5.11744ZM9.50079 6.65523C11.0717 6.65523 12.3453 7.92867 12.3453 9.49971C12.3453 11.0706 11.0717 12.3442 9.50079 12.3442C7.92975 12.3442 6.65632 11.0706 6.65632 9.49971C6.65632 7.92867 7.92975 6.65523 9.50079 6.65523Z" fill="#2D2D2D"/>
</svg>
