<svg width="25" height="25" viewBox="0 0 25 25" fill="none" xmlns="http://www.w3.org/2000/svg">
<path opacity="0.2" d="M9.17187 12.1988C9.94364 13.7926 11.2324 15.078 12.8281 15.8457C12.9458 15.9014 13.076 15.9255 13.2059 15.9157C13.3358 15.9058 13.4608 15.8623 13.5687 15.7894L15.9125 14.2238C16.016 14.1536 16.1357 14.1107 16.2603 14.0992C16.3849 14.0878 16.5104 14.108 16.625 14.1582L21.0125 16.0426C21.1625 16.105 21.2877 16.2149 21.369 16.3555C21.4504 16.4962 21.4832 16.6596 21.4625 16.8207C21.3234 17.9061 20.7937 18.9036 19.9723 19.6266C19.1509 20.3496 18.0943 20.7486 17 20.7488C13.6185 20.7488 10.3755 19.4055 7.98439 17.0144C5.5933 14.6233 4.25 11.3803 4.25 7.99881C4.25025 6.90456 4.6492 5.84789 5.37221 5.02652C6.09522 4.20515 7.09274 3.67537 8.17812 3.53631C8.33922 3.51562 8.50266 3.54845 8.64326 3.62977C8.78386 3.71108 8.89384 3.83636 8.95625 3.98631L10.8406 8.38318C10.8896 8.49601 10.9101 8.61916 10.9003 8.74177C10.8905 8.86439 10.8507 8.98271 10.7844 9.08631L9.21875 11.4676C9.14905 11.5753 9.10814 11.699 9.09993 11.8271C9.09172 11.9551 9.11649 12.0831 9.17187 12.1988Z" fill="#009379"/>
<path d="M9.17187 12.1988C9.94364 13.7926 11.2324 15.078 12.8281 15.8457C12.9458 15.9014 13.076 15.9255 13.2059 15.9157C13.3358 15.9058 13.4608 15.8623 13.5687 15.7894L15.9125 14.2238C16.016 14.1536 16.1357 14.1107 16.2603 14.0992C16.3849 14.0878 16.5104 14.108 16.625 14.1582L21.0125 16.0426C21.1625 16.105 21.2877 16.2149 21.369 16.3555C21.4504 16.4962 21.4832 16.6596 21.4625 16.8207C21.3234 17.9061 20.7937 18.9036 19.9723 19.6266C19.1509 20.3496 18.0943 20.7486 17 20.7488C13.6185 20.7488 10.3755 19.4055 7.98439 17.0144C5.5933 14.6233 4.25 11.3803 4.25 7.99881C4.25025 6.90456 4.6492 5.84789 5.37221 5.02652C6.09522 4.20515 7.09274 3.67537 8.17812 3.53631C8.33922 3.51562 8.50266 3.54845 8.64326 3.62977C8.78386 3.71108 8.89384 3.83636 8.95625 3.98631L10.8406 8.38318C10.8896 8.49601 10.9101 8.61916 10.9003 8.74177C10.8905 8.86439 10.8507 8.98271 10.7844 9.08631L9.21875 11.4676C9.14905 11.5753 9.10814 11.699 9.09993 11.8271C9.09172 11.9551 9.11649 12.0831 9.17187 12.1988Z" stroke="#009379" stroke-width="1.5" stroke-linecap="round" stroke-linejoin="round"/>
<path d="M15.4438 4.24902C16.716 4.59044 17.8759 5.26045 18.8073 6.19181C19.7387 7.12318 20.4087 8.28314 20.7501 9.55527" stroke="#009379" stroke-width="1.5" stroke-linecap="round" stroke-linejoin="round"/>
<path d="M14.6655 7.14551C15.4306 7.34871 16.1284 7.75055 16.6882 8.31033C17.248 8.8701 17.6498 9.5679 17.853 10.333" stroke="#009379" stroke-width="1.5" stroke-linecap="round" stroke-linejoin="round"/>
</svg>
