<svg width="26" height="26" viewBox="0 0 26 26" fill="none" xmlns="http://www.w3.org/2000/svg">
<path d="M13.5077 20.5788L19.3226 24.2708C20.0725 24.7439 20.9956 24.0401 20.7763 23.1748L19.0919 16.5522C19.0463 16.3686 19.0535 16.1759 19.1127 15.9963C19.1719 15.8166 19.2807 15.6574 19.4264 15.5369L24.6414 11.1872C25.3222 10.6218 24.976 9.47963 24.0876 9.42194L17.2804 8.98351C17.0947 8.9727 16.9161 8.90803 16.7666 8.79738C16.617 8.68674 16.5029 8.53492 16.4382 8.36048L13.8999 1.96865C13.8327 1.78394 13.7103 1.62437 13.5493 1.51162C13.3883 1.39886 13.1966 1.33838 13 1.33838C12.8034 1.33838 12.6117 1.39886 12.4507 1.51162C12.2897 1.62437 12.1673 1.78394 12.1001 1.96865L9.56179 8.36048C9.4971 8.53492 9.383 8.68674 9.23342 8.79738C9.08385 8.90803 8.90529 8.9727 8.71955 8.98351L1.91237 9.42194C1.02397 9.47963 0.677844 10.6218 1.35856 11.1872L6.57356 15.5369C6.71932 15.6574 6.82806 15.8166 6.88726 15.9963C6.94645 16.1759 6.9537 16.3686 6.90815 16.5522L5.35057 22.6902C5.08521 23.7286 6.19282 24.5708 7.08121 24.0055L12.4923 20.5788C12.6441 20.4823 12.8202 20.4311 13 20.4311C13.1798 20.4311 13.3559 20.4823 13.5077 20.5788V20.5788Z" stroke="#F8D57E" stroke-width="2" stroke-linecap="round" stroke-linejoin="round"/>
</svg>
