<svg width="26" height="26" viewBox="0 0 26 26" fill="none" xmlns="http://www.w3.org/2000/svg">
<path d="M13.5077 20.6555L19.3226 24.3475C20.0725 24.8205 20.9956 24.1167 20.7763 23.2514L19.0919 16.6288C19.0463 16.4453 19.0535 16.2526 19.1127 16.0729C19.1719 15.8933 19.2807 15.734 19.4264 15.6135L24.6414 11.2639C25.3222 10.6985 24.976 9.55629 24.0876 9.4986L17.2804 9.06017C17.0947 9.04936 16.9161 8.98469 16.7666 8.87404C16.617 8.7634 16.5029 8.61158 16.4382 8.43714L13.8999 2.04531C13.8327 1.8606 13.7103 1.70103 13.5493 1.58828C13.3883 1.47552 13.1966 1.41504 13 1.41504C12.8034 1.41504 12.6117 1.47552 12.4507 1.58828C12.2897 1.70103 12.1673 1.8606 12.1001 2.04531L9.56179 8.43714C9.4971 8.61158 9.383 8.7634 9.23343 8.87404C9.08385 8.98469 8.90529 9.04936 8.71955 9.06017L1.91237 9.4986C1.02397 9.55629 0.677844 10.6985 1.35856 11.2639L6.57356 15.6135C6.71932 15.734 6.82806 15.8933 6.88726 16.0729C6.94645 16.2526 6.9537 16.4453 6.90815 16.6288L5.35057 22.7668C5.08521 23.8052 6.19282 24.6475 7.08121 24.0821L12.4923 20.6555C12.6441 20.559 12.8202 20.5077 13 20.5077C13.1798 20.5077 13.3559 20.559 13.5077 20.6555Z" fill="#F8D57E" stroke="#F8D57E" stroke-width="2" stroke-linecap="round" stroke-linejoin="round"/>
</svg>
