<svg width="16" height="13" viewBox="0 0 16 13" fill="none" xmlns="http://www.w3.org/2000/svg">
<path fill-rule="evenodd" clip-rule="evenodd" d="M8.0208 3.50461L8.05438 4.05825L7.49479 3.99045C5.45791 3.73058 3.67843 2.84929 2.16756 1.36916L1.42891 0.634741L1.23865 1.17708C0.83575 2.38604 1.09316 3.66279 1.93253 4.52149C2.3802 4.99604 2.27948 5.06383 1.50725 4.78136C1.23865 4.69097 1.00363 4.62318 0.981242 4.65708C0.9029 4.73617 1.1715 5.76435 1.38414 6.1711C1.67513 6.73604 2.26828 7.28967 2.9174 7.61734L3.46579 7.87721L2.81668 7.8885C2.18994 7.8885 2.16756 7.8998 2.23471 8.13708C2.45854 8.87149 3.34268 9.6511 4.32755 9.99006L5.02143 10.2273L4.41708 10.5889C3.52175 11.1086 2.46973 11.4024 1.41772 11.425C0.914092 11.4363 0.5 11.4815 0.5 11.5154C0.5 11.6284 1.86538 12.2611 2.65999 12.5097C5.04382 13.2441 7.87531 12.9277 10.0017 11.6736C11.5126 10.781 13.0235 9.00708 13.7286 7.28967C14.1091 6.37448 14.4896 4.70227 14.4896 3.90006C14.4896 3.38032 14.5232 3.31253 15.1499 2.6911C15.5192 2.32955 15.8662 1.93409 15.9333 1.8211C16.0452 1.60643 16.034 1.60643 15.4633 1.79851C14.512 2.13747 14.3777 2.09227 14.8477 1.58383C15.1947 1.22227 15.6088 0.566949 15.6088 0.374871C15.6088 0.340975 15.4409 0.397468 15.2506 0.499157C15.0492 0.612144 14.6015 0.781624 14.2658 0.883312L13.6614 1.07539L13.113 0.702533C12.8108 0.499157 12.3856 0.273183 12.1617 0.205391C11.5909 0.0472089 10.718 0.0698062 10.2032 0.250585C8.80422 0.759027 7.92008 2.06968 8.0208 3.50461Z" fill="#2D2D2D"/>
</svg>
