<svg width="21" height="21" viewBox="0 0 21 21" fill="none" xmlns="http://www.w3.org/2000/svg">
<path opacity="0.2" d="M10.5 12.999C13.2614 12.999 15.5 10.7604 15.5 7.99902C15.5 5.2376 13.2614 2.99902 10.5 2.99902C7.73858 2.99902 5.5 5.2376 5.5 7.99902C5.5 10.7604 7.73858 12.999 10.5 12.999Z" fill="#009379"/>
<path d="M10.5 12.999C13.2614 12.999 15.5 10.7604 15.5 7.99902C15.5 5.2376 13.2614 2.99902 10.5 2.99902C7.73858 2.99902 5.5 5.2376 5.5 7.99902C5.5 10.7604 7.73858 12.999 10.5 12.999Z" stroke="#009379" stroke-width="0.740741" stroke-miterlimit="10"/>
<path d="M2.92188 17.3737C3.68979 16.0434 4.7944 14.9386 6.12465 14.1705C7.4549 13.4024 8.96392 12.998 10.5 12.998C12.0361 12.998 13.5451 13.4024 14.8753 14.1705C16.2056 14.9386 17.3102 16.0434 18.0781 17.3737" stroke="#009379" stroke-width="0.740741" stroke-linecap="round" stroke-linejoin="round"/>
</svg>
